<svg version="1.1" xmlns="http://www.w3.org/2000/svg" xmlns:xlink="http://www.w3.org/1999/xlink">
    <defs>
         <symbol id="icon-bus" viewBox="0 0 32 32">
            <title>bus</title>
            <path d="M6.857 21.714q0-0.946-0.67-1.616t-1.616-0.67-1.616 0.67-0.67 1.616 0.67 1.616 1.616 0.67 1.616-0.67 0.67-1.616zM25.143 21.714q0-0.946-0.67-1.616t-1.616-0.67-1.616 0.67-0.67 1.616 0.67 1.616 1.616 0.67 1.616-0.67 0.67-1.616zM24.321 14.643l-1.286-6.857q-0.089-0.411-0.402-0.67t-0.723-0.259h-16.393q-0.411 0-0.723 0.259t-0.402 0.67l-1.286 6.857q-0.089 0.536 0.25 0.946t0.875 0.411h18.964q0.536 0 0.875-0.411t0.25-0.946zM20.286 3.714q0-0.357-0.25-0.607t-0.607-0.25h-11.429q-0.357 0-0.607 0.25t-0.25 0.607 0.25 0.607 0.607 0.25h11.429q0.357 0 0.607-0.25t0.25-0.607zM27.429 16.661v10.768h-2.286v2.286q0 0.946-0.67 1.616t-1.616 0.67-1.616-0.67-0.67-1.616v-2.286h-13.714v2.286q0 0.946-0.67 1.616t-1.616 0.67-1.616-0.67-0.67-1.616v-2.286h-2.286v-10.768q0-2 0.446-3.982l1.839-8.107q0.161-1.393 1.741-2.446t4.107-1.589 5.58-0.536 5.58 0.536 4.107 1.589 1.741 2.446l1.875 8.107q0.411 1.821 0.411 3.982z"></path>
        </symbol>
        <symbol id="icon-road" viewBox="0 0 34 32">
            <title>road</title>
            <path d="M19.839 17.786v-0.071l-0.429-5.714q-0.018-0.232-0.196-0.402t-0.411-0.17h-3.321q-0.232 0-0.411 0.17t-0.196 0.402l-0.429 5.714v0.071q-0.018 0.214 0.143 0.357t0.375 0.143h4.357q0.214 0 0.375-0.143t0.143-0.357zM33.393 26.125q0 1.304-0.821 1.304h-12.571q0.232 0 0.393-0.17t0.143-0.402l-0.357-4.571q-0.018-0.232-0.196-0.402t-0.411-0.17h-4.857q-0.232 0-0.411 0.17t-0.196 0.402l-0.357 4.571q-0.018 0.232 0.143 0.402t0.393 0.17h-12.571q-0.821 0-0.821-1.304 0-0.964 0.464-2.071l7.446-18.643q0.143-0.339 0.464-0.589t0.679-0.25h6.054q-0.232 0-0.411 0.17t-0.196 0.402l-0.268 3.429q-0.018 0.25 0.143 0.411t0.393 0.161h2.964q0.232 0 0.393-0.161t0.143-0.411l-0.268-3.429q-0.018-0.232-0.196-0.402t-0.411-0.17h6.054q0.357 0 0.679 0.25t0.464 0.589l7.446 18.643q0.464 1.107 0.464 2.071z"></path>
        </symbol>
        <symbol id="icon-route" viewBox="0 0 32 32">
            <title>route</title>
            <path d="M24.906-0.031c-0.473 0.12-0.931 0.297-1.375 0.531-1.836 1.32-2.346 3.039-1.531 5.156 0.838 1.968 1.838 3.843 3 5.625 0.285 0.324 0.629 0.397 1.031 0.219 0.711-1.036 1.367-2.109 1.969-3.219 0.667-1.169 1.188-2.398 1.563-3.688 0.189-2.425-0.884-3.967-3.219-4.625-0.479 0-0.958 0-1.438 0zM25.219 2.406c1.237-0.065 1.966 0.508 2.188 1.719-0.261 1.422-1.095 1.964-2.5 1.625-0.923-0.514-1.225-1.274-0.906-2.281 0.254-0.537 0.66-0.891 1.219-1.063z"></path>
            <path d="M23.156 31.969c-4.271 0-8.542 0-12.813 0 0.497-0.691 0.955-1.409 1.375-2.156 3.688-0.021 7.375-0.042 11.063-0.063 0.124-0.082 0.197-0.197 0.219-0.344 0.061-2.441 0.041-4.879-0.063-7.313-0.031-0.073-0.083-0.125-0.156-0.156-1.75-0.021-3.5-0.042-5.25-0.063-0.967-0.061-1.602-0.551-1.906-1.469-0.067-1.263-0.119-2.524-0.156-3.781-3.833-0.021-7.667-0.042-11.5-0.063-0.956-0.185-1.508-0.758-1.656-1.719-0.042-0.875-0.042-1.75 0-2.625 0.148-0.961 0.701-1.534 1.656-1.719 6.479-0.052 12.958-0.042 19.438 0.031 0.332 0.654 0.749 1.248 1.25 1.781 0.306 0.192 0.639 0.296 1 0.313-7.063 0.031-14.125 0.042-21.188 0.031 0 0.583 0 1.167 0 1.75 3.813-0.010 7.625 0 11.438 0.031 1.117 0.325 1.732 1.065 1.844 2.219 0.031 1 0.042 2 0.031 3 1.814-0.026 3.627 0.005 5.438 0.094 1.181 0.369 1.837 1.171 1.969 2.406 0.060 2.627 0.039 5.252-0.063 7.875-0.3 1.018-0.956 1.663-1.969 1.938z"></path>
            <path d="M8.656 19.719c-0.521 0.094-1.021 0.271-1.5 0.531-1.848 1.274-2.379 2.972-1.594 5.094 0.859 2.010 1.88 3.927 3.063 5.75 0.359 0.383 0.734 0.404 1.125 0.063 1.178-1.805 2.199-3.701 3.063-5.688 0.401-0.862 0.505-1.758 0.313-2.688-0.697-2.165-2.187-3.185-4.469-3.063zM8.844 22.156c1.415-0.032 2.113 0.655 2.094 2.063-0.437 1.306-1.302 1.712-2.594 1.219-0.95-0.704-1.127-1.569-0.531-2.594 0.293-0.317 0.637-0.547 1.031-0.688z"></path>
        </symbol>
        <symbol id="icon-non-wheelchair" viewBox="0 0 32 32">
            <path d="M13.552 1.28c-5.632 0.944-10.24 5.072-11.872 10.656-0.608 2.032-0.72 4.832-0.272 6.944 0.592 2.896 1.76 5.152 3.696 7.232 1.424 1.52 2.688 2.448 4.512 3.328 2.256 1.072 3.504 1.344 6.384 1.344 2.864 0 4.128-0.272 6.368-1.344 1.696-0.816 2.576-1.408 3.936-2.704 1.36-1.312 2.304-2.608 3.136-4.352 1.072-2.256 1.344-3.504 1.344-6.384s-0.272-4.128-1.344-6.384c-1.632-3.408-4.464-6.064-7.92-7.456-2.288-0.912-5.6-1.264-7.968-0.88zM18.736 4.304c1.44 0.368 2.72 0.928 3.792 1.648l0.816 0.544-2.8 2.8c-1.536 1.536-2.752 2.88-2.704 2.976 0.048 0.16-0.32 0.208-1.52 0.208-1.744 0-1.632 0.064-1.856-1.168-0.096-0.528-0.048-0.672 0.352-1.088s0.464-0.608 0.464-1.344c0-1.168-0.48-1.696-1.664-1.808-0.752-0.064-0.848-0.032-1.376 0.496-0.464 0.464-0.56 0.672-0.56 1.232 0 0.368 0.112 0.864 0.224 1.088 0.128 0.24 0.496 1.792 0.816 3.472 0.704 3.728 0.8 4.064 1.248 4.16 0.192 0.048 1.312 0.096 2.496 0.128l2.16 0.032 0.592 2.384c0.4 1.584 0.704 2.496 0.928 2.704 0.32 0.32 0.336 0.32 1.648 0.048 1.52-0.32 1.888-0.576 1.888-1.296 0-0.784-0.464-1.104-1.408-0.976l-0.768 0.096-0.544-2.256c-0.72-2.96-0.608-2.864-3.52-2.864h-2.208l-0.064-0.48-0.080-0.48 3.232 0.064-1.472 0.048c-1.36 0.048-1.488 0.096-1.488 0.368 0 0.304 0.112 0.32 1.632 0.32h1.648l6.768-6.768 0.496 0.688c2.16 2.992 2.688 7.488 1.28 11.088-1.12 2.864-3.936 5.68-6.816 6.816-3.584 1.408-8.096 0.88-11.088-1.28l-0.672-0.496 1.696-1.728-0.4-0.432-0.384-0.448 0.48 0.416c2.624 2.304 6.384 2.304 8.624 0l0.624-0.64-0.208-0.976c-0.112-0.528-0.256-1.008-0.32-1.040-0.080-0.048-0.32 0.24-0.544 0.624-0.8 1.376-2.688 2.304-4.272 2.128-1.568-0.192-3.040-1.296-3.696-2.8-0.496-1.104-0.368-2.928 0.272-3.968 0.272-0.432 0.8-0.992 1.168-1.264 0.656-0.48 0.672-0.48 0.576-1.28-0.064-0.448-0.128-0.832-0.16-0.864-0.112-0.128-1.472 0.8-2.096 1.456-1.12 1.152-1.536 2.192-1.616 3.984-0.064 1.36-0.016 1.648 0.352 2.56 0.336 0.832 0.352 0.944 0.096 0.624l-0.304-0.4-2.016 1.984-0.592-0.912c-2.224-3.456-2.512-7.76-0.768-11.472 0.32-0.704 0.928-1.728 1.328-2.272 1.472-1.984 4.192-3.76 6.704-4.384 1.616-0.384 4.048-0.4 5.584 0z"></path>
            <path d="M11.712 18.288c-0.896 0.896-1.472 1.6-1.472 1.808 0 0.352 0.752 1.616 1.184 1.968 0.256 0.208 0.48 0.032 2.432-1.92l2.144-2.144-1.040-0.112c-1.088-0.112-1.472-0.304-1.664-0.8-0.080-0.24-0.368-0.016-1.584 1.2z"></path>
        </symbol>
        <symbol id="icon-bus-eta" viewBox="0 0 32 32">
            <title>bus-eta</title>
            <path d="M20.509 1.345c-0.027 0.045-0.4 0.109-0.836 0.136-0.427 0.027-0.827 0.091-0.882 0.136-0.064 0.045-0.273 0.109-0.464 0.136-0.336 0.055-1.318 0.482-1.418 0.627-0.027 0.027-0.155 0.082-0.291 0.118-0.127 0.036-0.464 0.264-0.736 0.509s-0.536 0.445-0.573 0.445c-0.109 0-1.127 1.018-1.127 1.136-0.009 0.045-0.118 0.227-0.255 0.382l-0.255 0.291-2.582 0.055c-1.545 0.027-2.618 0.082-2.673 0.136-0.045 0.045-0.373 0.091-0.709 0.091s-0.618 0.036-0.618 0.082c0 0.045-0.345 0.109-0.773 0.145s-0.791 0.091-0.818 0.136c-0.027 0.045-0.209 0.1-0.418 0.136-0.2 0.036-0.482 0.118-0.609 0.191-0.136 0.073-0.291 0.127-0.345 0.127-0.164 0-0.818 0.345-0.945 0.491-0.064 0.082-0.164 0.145-0.218 0.145-0.127 0-0.755 0.627-0.927 0.927-0.409 0.727-0.509 0.991-0.555 1.464-0.027 0.291-0.091 0.545-0.127 0.573-0.109 0.064-0.109 14.555 0 14.618 0.036 0.027 0.1 0.227 0.127 0.436 0.064 0.436 0.3 0.982 0.436 0.982 0.045 0 0.082 0.055 0.082 0.118s0.164 0.273 0.355 0.464l0.364 0.355 0.055 3.055 0.264 0.273c0.155 0.155 0.345 0.282 0.427 0.282 0.091 0 0.191 0.036 0.218 0.091 0.036 0.055 0.455 0.091 0.982 0.082 1.109-0.009 1.509-0.173 1.836-0.773 0.182-0.318 0.209-0.5 0.2-1.136l-0.018-0.764 10.664-0.045 0.036 0.991c0.027 0.964 0.036 1.009 0.291 1.273 0.155 0.155 0.345 0.282 0.427 0.282 0.091 0 0.191 0.045 0.218 0.091 0.073 0.118 1.927 0.118 2 0.009 0.027-0.045 0.164-0.109 0.309-0.145 0.145-0.027 0.291-0.118 0.318-0.191 0.027-0.082 0.091-0.118 0.136-0.091s0.109-0.009 0.136-0.091c0.036-0.091 0.018-0.118-0.064-0.082-0.055 0.036-0.027-0.018 0.073-0.109 0.173-0.155 0.182-0.264 0.164-1.573l-0.018-1.409 0.3-0.318c0.164-0.173 0.373-0.473 0.455-0.664 0.082-0.182 0.191-0.318 0.227-0.3 0.036 0.027 0.073-0.073 0.082-0.227 0-0.155 0.045-0.327 0.091-0.382 0.145-0.182 0.2-1 0.2-3.109v-2l0.255-0.109c0.136-0.055 0.464-0.127 0.727-0.164 0.255-0.036 0.473-0.091 0.473-0.136 0-0.036 0.164-0.091 0.373-0.127 0.2-0.036 0.464-0.118 0.573-0.191s0.227-0.118 0.255-0.091c0.027 0.027 0.1-0.009 0.164-0.091 0.064-0.073 0.182-0.136 0.264-0.136 0.091 0 0.255-0.1 0.373-0.227s0.273-0.227 0.336-0.227c0.173 0 2.709-2.545 2.709-2.727 0-0.027 0.045-0.109 0.091-0.182s0.236-0.427 0.409-0.773c0.173-0.355 0.364-0.7 0.409-0.773s0.091-0.245 0.109-0.4c0.018-0.145 0.073-0.318 0.127-0.382 0.045-0.055 0.118-0.464 0.145-0.891 0.027-0.436 0.091-0.809 0.136-0.836 0.1-0.064 0.1-1.645-0.009-1.709-0.036-0.027-0.1-0.382-0.127-0.782s-0.091-0.791-0.145-0.855c-0.064-0.073-0.118-0.282-0.136-0.464-0.018-0.191-0.073-0.364-0.118-0.4-0.1-0.064-0.245-0.382-0.227-0.482 0.009-0.036-0.064-0.2-0.164-0.364s-0.209-0.373-0.236-0.464c-0.036-0.082-0.091-0.155-0.136-0.155s-0.082-0.055-0.082-0.118c0-0.073-0.082-0.2-0.182-0.291s-0.164-0.182-0.145-0.209c0.064-0.055-1.991-2.109-2.1-2.109-0.055 0-0.164-0.082-0.255-0.182s-0.218-0.182-0.291-0.182c-0.064 0-0.118-0.027-0.118-0.073 0-0.073-0.109-0.127-0.7-0.409-0.191-0.091-0.473-0.227-0.627-0.3-0.282-0.145-0.5-0.2-0.791-0.209-0.091-0.009-0.145-0.045-0.118-0.082 0.027-0.045 0-0.082-0.064-0.091s-0.445-0.036-0.864-0.073c-0.409-0.036-0.773-0.1-0.8-0.136-0.064-0.109-1.645-0.109-1.709-0.009zM22.864 4.173c0.045 0.045 0.218 0.1 0.364 0.136 0.155 0.036 0.618 0.227 1.045 0.436 0.645 0.318 0.927 0.527 1.691 1.291 0.755 0.755 0.982 1.045 1.273 1.645 0.191 0.4 0.355 0.745 0.364 0.773 0.064 0.309 0.173 0.618 0.245 0.718 0.145 0.173 0.136 2.882-0.009 3.027-0.064 0.064-0.109 0.209-0.109 0.327s-0.055 0.327-0.127 0.455c-0.064 0.136-0.182 0.364-0.245 0.518-0.064 0.145-0.236 0.418-0.373 0.6s-0.255 0.373-0.255 0.418c0 0.109-1.382 1.473-1.645 1.618-0.209 0.118-0.564 0.318-1.127 0.627-0.145 0.082-0.336 0.145-0.418 0.145-0.073 0-0.182 0.045-0.236 0.1s-0.345 0.118-0.655 0.145c-0.309 0.027-0.582 0.091-0.609 0.127-0.064 0.109-1.373 0.109-1.436 0-0.027-0.036-0.309-0.1-0.618-0.127-0.318-0.027-0.7-0.118-0.845-0.191-0.155-0.082-0.318-0.145-0.373-0.145-0.155 0-0.673-0.282-0.673-0.364 0-0.036-0.073-0.1-0.155-0.127-0.655-0.236-2.027-1.609-2.264-2.264-0.027-0.082-0.091-0.155-0.127-0.155-0.082 0-0.364-0.518-0.364-0.673 0-0.055-0.064-0.218-0.145-0.373-0.073-0.145-0.164-0.527-0.191-0.845-0.027-0.309-0.091-0.591-0.127-0.618-0.109-0.064-0.109-1.373 0-1.436 0.036-0.027 0.1-0.3 0.127-0.609s0.091-0.6 0.145-0.655c0.055-0.055 0.1-0.164 0.1-0.227 0-0.191 0.564-1.318 0.709-1.409 0.055-0.036 0.109-0.118 0.109-0.182 0-0.118 1.455-1.609 1.573-1.609 0.045 0 0.236-0.118 0.418-0.255 0.309-0.236 0.555-0.373 0.964-0.527 0.245-0.091 0.236-0.082 0.545-0.173 0.155-0.036 0.318-0.1 0.364-0.145 0.218-0.164 2.873-0.164 3.091 0zM11.909 11.136c0 0.273 0.045 0.5 0.091 0.5 0.055 0 0.091 0.218 0.091 0.491s0.045 0.527 0.091 0.555c0.055 0.036 0.091 0.127 0.082 0.209-0.027 0.182 0.091 0.664 0.191 0.791 0.036 0.045 0.1 0.227 0.136 0.382 0.027 0.164 0.1 0.3 0.145 0.3s0.082 0.1 0.082 0.218c0 0.127 0.1 0.345 0.227 0.491 0.127 0.155 0.227 0.318 0.227 0.373 0 0.045 0.127 0.236 0.273 0.4 0.145 0.173 0.273 0.355 0.273 0.4s0.182 0.264 0.409 0.482c0.227 0.218 0.409 0.455 0.409 0.518 0 0.091-1.036 0.118-5.318 0.118h-5.318v-6.727h7.909v0.5zM6.982 21.564c0.082 0.073 0.227 0.164 0.318 0.191 0.082 0.036 0.2 0.155 0.245 0.264 0.055 0.118 0.127 0.273 0.164 0.345 0.245 0.427 0.291 0.582 0.291 0.991 0 0.255-0.036 0.482-0.091 0.509-0.045 0.027-0.091 0.127-0.091 0.209 0 0.091-0.227 0.382-0.5 0.655l-0.509 0.5h-0.709c-0.755 0-1.055-0.1-1.491-0.5-0.382-0.345-0.564-0.791-0.564-1.418 0-0.955 0.418-1.509 1.409-1.891 0.255-0.1 1.364 0.009 1.527 0.145zM19.173 21.709c0.518 0.418 0.718 0.864 0.718 1.609 0 0.755-0.2 1.191-0.736 1.627-0.336 0.264-0.4 0.282-1.155 0.282-0.636 0-0.836-0.036-0.973-0.164-0.1-0.082-0.218-0.155-0.264-0.155-0.045-0.009-0.2-0.182-0.345-0.391-0.209-0.3-0.282-0.509-0.309-0.945-0.064-0.891 0.027-1.173 0.518-1.664 0.5-0.5 0.627-0.545 1.545-0.5 0.573 0.027 0.718 0.073 1 0.3z"></path>
            <path d="M20.091 5.309c-0.027 0.018-0.027 1.564 0 3.436l0.045 3.391 0.364 0.2c0.2 0.109 0.491 0.264 0.655 0.345s0.336 0.209 0.4 0.282c0.055 0.073 0.155 0.127 0.218 0.127 0.073 0 0.236 0.1 0.382 0.218 0.145 0.127 0.373 0.255 0.509 0.282 0.136 0.036 0.245 0.1 0.245 0.145 0 0.036 0.155 0.145 0.345 0.227 0.182 0.091 0.464 0.255 0.618 0.373s0.309 0.209 0.345 0.209c0.036 0 0.182 0.091 0.327 0.2s0.282 0.182 0.291 0.155c0.018-0.018 0.082-0.118 0.145-0.218s0.173-0.309 0.245-0.473c0.073-0.155 0.209-0.345 0.291-0.409 0.191-0.136 0.282-0.709 0.109-0.709-0.064 0-0.236-0.091-0.391-0.209-0.155-0.109-0.464-0.3-0.691-0.409-0.464-0.236-0.755-0.4-0.818-0.482-0.027-0.027-0.118-0.073-0.209-0.109s-0.145-0.091-0.118-0.136c0.018-0.036-0.036-0.082-0.145-0.082-0.245-0.018-0.636-0.291-0.573-0.391 0.027-0.055-0.009-0.064-0.082-0.036-0.155 0.055-0.6-0.209-0.6-0.364 0-0.055 0.045-0.036 0.091 0.036 0.055 0.091 0.091-0.845 0.091-2.736v-2.882l-1.027-0.009c-0.564-0.009-1.045 0-1.064 0.027z"></path>
        </symbol>
            <symbol id="icon-wheelchair" viewBox="0 0 30 32">
            <title>wheelchair</title>
            <path d="M18.268 21.196l1.821 3.643q-1.036 3.196-3.75 5.179t-6.054 1.982q-2.786 0-5.152-1.384t-3.75-3.75-1.384-5.152q0-3.232 1.866-5.893t4.902-3.768l0.304 2.339q-2.179 0.964-3.482 2.955t-1.304 4.366q0 3.304 2.348 5.652t5.652 2.348q2.25 0 4.152-1.161t2.946-3.134 0.884-4.223zM28.054 22.982l1.036 2.036-4.571 2.286q-0.232 0.125-0.518 0.125-0.714 0-1.018-0.625l-4.268-8.518h-8.429q-0.429 0-0.759-0.295t-0.384-0.723l-1.714-13.911q-0.036-0.286 0.107-0.75 0.25-0.911 1.018-1.473t1.732-0.563q1.179 0 2.018 0.839t0.839 2.018q0 1.232-0.929 2.098t-2.143 0.741l0.661 5.161h7.554v2.286h-7.268l0.286 2.286h8.125q0.714 0 1.018 0.625l4.071 8.125z"></path>
        </symbol>
    </defs>
</svg>